# xmcd CD database file
#
# Track frame offsets:
#	150
#	16368
#	39713
#	63880
#	79641
#	103149
#	132787
#	164053
#	186777
#	222394
#
# Disc length: 3526 seconds
#
# Revision: 1
# Processed by: cddbd v1.5.1PL2 Copyright (c) Steve Scherf et al.
# Submitted via: CDex 1.51
#
DISCID=890dc40a
DTITLE=Burst - Origo
DYEAR=2005
DGENRE=Metal Core
TTITLE0=Where The Wave Broke
TTITLE1=Sever
TTITLE2=The Immateria
TTITLE3=Slave Emotion
TTITLE4=Flight's End
TTITLE5=Homebound
TTITLE6=It Comes Into View
TTITLE7=Stormwielder
TTITLE8=Mercy Liberation
TTITLE9=After The Love Is Gone
EXTD=YEAR: 2005
EXTT0=
EXTT1=
EXTT2=
EXTT3=
EXTT4=
EXTT5=
EXTT6=
EXTT7=
EXTT8=
EXTT9=
PLAYORDER=
